<svg height="512" viewBox="0 0 512 512" width="512" xmlns="http://www.w3.org/2000/svg" xmlns:xlink="http://www.w3.org/1999/xlink"><linearGradient id="linear-gradient" gradientUnits="userSpaceOnUse" x1="102.775" x2="409.225" y1="346.089" y2="39.64"><stop offset="0" stop-color="#41dfd0"/><stop offset="1" stop-color="#ee83ef"/></linearGradient><g id="gradient"><path d="m496 170.429a106.429 106.429 0 0 0 -181.686-75.257l-58.314 58.314-58.314-58.314a106.43 106.43 0 0 0 -150.514 150.515l2.314 2.313h-25.486a8 8 0 0 0 0 16h41.486l184.857 184.857a8 8 0 0 0 11.314 0l184.535-184.535 41.87-.322a8 8 0 0 0 -.062-16h-.063l-25.621.2 2.511-2.51a105.737 105.737 0 0 0 31.173-75.261zm-240 261.458-167.886-167.887h31.886a8 8 0 0 0 7.589-5.47l23.823-71.468 40.9 143.136a8 8 0 0 0 6.831 5.755 8.092 8.092 0 0 0 .857.047 8 8 0 0 0 7.042-4.207l49.913-92.693 16.535 23.15a8 8 0 0 0 6.51 3.35h.062l143.327-1.1zm197.514-197.515-14 14-155.42 1.2-21.584-30.222a8 8 0 0 0 -13.554.857l-46.67 86.674-42.594-149.081a8 8 0 0 0 -15.281-.332l-30.177 90.532h-42.12l-13.628-13.628a90.429 90.429 0 0 1 127.887-127.886l63.97 63.971a8 8 0 0 0 11.314 0l63.97-63.971a90.429 90.429 0 1 1 127.887 127.886zm-179.171 129.828 8-8a8 8 0 1 1 11.314 11.315l-8 8a8 8 0 0 1 -11.314-11.315zm32-20.685a8 8 0 0 1 0-11.315l40-40a8 8 0 1 1 11.314 11.315l-40 40a8 8 0 0 1 -11.314 0z" fill="url(#linear-gradient)"/></g></svg>