<svg height="512" viewBox="0 0 128 128" width="512" xmlns="http://www.w3.org/2000/svg"><g><circle cx="64" cy="64" fill="#dfdfe5" r="57.5"/><circle cx="64" cy="64" fill="#efeffb" r="48.5"/><path d="m106.414 63.063a1.749 1.749 0 0 1 -1.744-1.64 40.78 40.78 0 0 0 -1.032-6.9 1.75 1.75 0 1 1 3.4-.814 44.2 44.2 0 0 1 1.12 7.494 1.749 1.749 0 0 1 -1.637 1.856c-.033.004-.07.004-.107.004z" fill="#dfdfe5"/><g fill="#b560e8"><path d="m106 89.99h-84a1.75 1.75 0 0 1 -1.516-2.625l42-72.74a1.751 1.751 0 0 1 3.032 0l42 72.74a1.75 1.75 0 0 1 -1.516 2.625zm-80.963-3.5h77.932l-38.969-67.49z"/><path d="m64 114.25a1.752 1.752 0 0 1 -1.516-.875l-42-72.74a1.75 1.75 0 0 1 1.516-2.625h84a1.75 1.75 0 0 1 1.516 2.625l-42 72.74a1.752 1.752 0 0 1 -1.516.875zm-38.966-72.74 38.966 67.49 38.966-67.49z"/></g></g></svg>