<?xml version="1.0"?>
<svg xmlns="http://www.w3.org/2000/svg" xmlns:xlink="http://www.w3.org/1999/xlink" viewBox="0 0 512 512" width="512" height="512"><defs><linearGradient id="linear-gradient" x1="91.976" y1="415.289" x2="420.024" y2="87.241" gradientUnits="userSpaceOnUse"><stop offset="0" stop-color="#41dfd0"/><stop offset="1" stop-color="#ee83ef"/></linearGradient></defs><g id="gradient"><path d="M312,396.176a28.177,28.177,0,0,0-48.1-19.924l-7.455,7.456-7.456-7.455A28.176,28.176,0,0,0,209.142,416.1l41.646,41.646a8,8,0,0,0,11.315,0L303.748,416.1A28,28,0,0,0,312,396.176Zm-19.566,8.61-35.989,35.989-35.989-35.989a12.176,12.176,0,0,1,17.219-17.22l13.113,13.113a8,8,0,0,0,11.315,0l13.112-13.114a12.176,12.176,0,0,1,17.219,17.221ZM414.392,81.608A224,224,0,0,0,32,240v24a8,8,0,0,0,11.969,6.946l.039-.022a8,8,0,0,0,.963.48L183.316,328H176a8,8,0,0,0-8,8V488a8,8,0,0,0,8,8H336a8,8,0,0,0,8-8V336a8,8,0,0,0-8-8h-7.316l138.345-56.6a8,8,0,0,0,.963-.48l.039.022A8,8,0,0,0,480,264V240A222.533,222.533,0,0,0,414.392,81.608ZM464,240v10.988a135.951,135.951,0,0,0-110.188-.1l-1.981.88A489.856,489.856,0,0,0,295.315,35.743C391.272,54.176,464,138.748,464,240ZM248,319.118l-63.666-52.09A249.629,249.629,0,0,1,248,256.665Zm16-62.453a249.629,249.629,0,0,1,63.666,10.363L264,319.118ZM275.7,32.939l4.77,8.943a473.8,473.8,0,0,1,55.381,210.924,265.722,265.722,0,0,0-159.7,0A473.8,473.8,0,0,1,231.529,41.882l4.77-8.943C242.786,32.327,249.355,32,256,32S269.214,32.327,275.7,32.939ZM48,240C48,138.748,120.728,54.176,216.685,35.743a489.856,489.856,0,0,0-56.516,216.022l-1.981-.88a135.939,135.939,0,0,0-110.188.1Zm15.951,21.882a119.874,119.874,0,0,1,87.739,3.624l12.078,5.368L233.589,328h-8.016ZM184,480V464h24a8,8,0,0,0,0-16H184V344H328V448H304a8,8,0,0,0,0,16h24v16ZM286.427,328h-8.016l69.821-57.126,12.078-5.368a119.87,119.87,0,0,1,87.739-3.624Z" style="fill:url(#linear-gradient)"/></g></svg>
