<?xml version="1.0"?>
<svg xmlns="http://www.w3.org/2000/svg" xmlns:xlink="http://www.w3.org/1999/xlink" viewBox="0 0 512 512" width="512" height="512"><defs><linearGradient id="linear-gradient" x1="111.457" y1="414.316" x2="394.48" y2="131.293" gradientUnits="userSpaceOnUse"><stop offset="0" stop-color="#41dfd0"/><stop offset="1" stop-color="#ee83ef"/></linearGradient></defs><g id="gradient"><path d="M462.27,232.513a152.859,152.859,0,0,0-71.846-49.278l10.466-10.467a24.139,24.139,0,0,0,5.864-24.839A29.145,29.145,0,0,0,358.5,136.537l-4.15,4.15-4.15-4.15a29.145,29.145,0,0,0-48.259,11.392,24.14,24.14,0,0,0,5.863,24.839l6.2,6.2c-4.119.825-8.2,1.816-12.216,2.975a7.96,7.96,0,0,0-.868.309A152.1,152.1,0,0,0,205.593,108.7l24.722-31.786A8,8,0,0,0,230.4,67.2l-24-32A8,8,0,0,0,200,32H136a8,8,0,0,0-6.4,3.2l-24,32a8,8,0,0,0,.085,9.712L130.408,108.7A152.045,152.045,0,0,0,16,256c0,83.813,68.187,152,152,152a151.532,151.532,0,0,0,43.083-6.229A151.524,151.524,0,0,0,344,480c83.813,0,152-68.187,152-152A152.361,152.361,0,0,0,462.27,232.513ZM317.115,152.989a13.145,13.145,0,0,1,21.766-5.139l9.807,9.807a8,8,0,0,0,11.313,0l9.807-9.806a13.145,13.145,0,0,1,21.767,5.138,8.229,8.229,0,0,1-2,8.466l-35.232,35.232-35.232-35.232A8.229,8.229,0,0,1,317.115,152.989ZM320,256a151.945,151.945,0,0,0-2.712-28.529,104.009,104.009,0,1,1-62.815,153.461A151.936,151.936,0,0,0,320,256Zm7.972-63.059,15.076,15.076a120.242,120.242,0,0,0-29.587,3.913A152.02,152.02,0,0,0,308,196.821,135.775,135.775,0,0,1,327.972,192.941ZM272,256a104.135,104.135,0,0,1-31.947,74.983c-.028-1-.053-1.989-.053-2.983a103.37,103.37,0,0,1,31.954-75C271.982,254,272,255,272,256Zm-62.026,95.186A137.259,137.259,0,0,1,208,328a135.8,135.8,0,0,1,56.633-110.442,103.149,103.149,0,0,1,4.981,16.276A119.391,119.391,0,0,0,224,328a121.573,121.573,0,0,0,.951,15.019A103.669,103.669,0,0,1,209.974,351.186ZM192,328a153.165,153.165,0,0,0,2.689,28.539,104.017,104.017,0,1,1,62.781-153.5A151.77,151.77,0,0,0,192,328ZM138.234,80l7.408,22.223L128.357,80Zm69.409,0-17.285,22.223L197.766,80ZM180.9,80,168,118.7,155.1,80ZM160,64l8-10.667L176,64Zm48,0H196L184,48h12ZM140,48h12L140,64H128ZM32,256A136.035,136.035,0,0,1,141.249,122.637l11.179,14.372a120,120,0,1,0,31.144,0l11.179-14.372A136.035,136.035,0,0,1,304,256c0,74.991-61.009,136-136,136S32,330.991,32,256ZM344,464a135.561,135.561,0,0,1-117.6-67.674,151.512,151.512,0,0,0,14.471-6.967A120,120,0,1,0,363.985,209.673L377.5,196.16A136.053,136.053,0,0,1,480,328C480,402.991,418.991,464,344,464Zm24.669-59.455a8,8,0,0,1,4.129-10.533,72.235,72.235,0,0,0,7.2-3.64,8,8,0,1,1,8.009,13.851,88,88,0,0,1-8.8,4.451,7.993,7.993,0,0,1-10.533-4.129Zm32.94-33.35A71.369,71.369,0,0,0,416,328a8,8,0,0,1,16,0,87.255,87.255,0,0,1-17.6,52.805,8,8,0,0,1-12.793-9.61Z" style="fill:url(#linear-gradient)"/></g></svg>
